<mxfile host="Electron" modified="2025-05-23T14:36:07.551Z" agent="Mozilla/5.0 (Windows NT 10.0; Win64; x64) AppleWebKit/537.36 (KHTML, like Gecko) draw.io/24.6.4 Chrome/124.0.6367.207 Electron/30.0.6 Safari/537.36" etag="tTkky1nkWYgVtz6qT6uO" version="24.6.4" type="device">
  <diagram name="第 1 页" id="TPS79ln0V3hm8_UhpVon">
    <mxGraphModel dx="593" dy="683" grid="1" gridSize="10" guides="1" tooltips="1" connect="1" arrows="1" fold="1" page="1" pageScale="1" pageWidth="827" pageHeight="1169" math="0" shadow="0">
      <root>
        <mxCell id="0" />
        <mxCell id="1" parent="0" />
        <mxCell id="i9t5IMqRtd6wRddDfU5w-4" value="" style="image;points=[];aspect=fixed;html=1;align=center;shadow=0;dashed=0;image=img/lib/allied_telesis/computer_and_terminals/Server_Desktop.svg;" vertex="1" parent="1">
          <mxGeometry x="550" y="210" width="86.78" height="110" as="geometry" />
        </mxCell>
        <mxCell id="i9t5IMqRtd6wRddDfU5w-6" style="edgeStyle=orthogonalEdgeStyle;rounded=0;orthogonalLoop=1;jettySize=auto;html=1;" edge="1" parent="1" source="i9t5IMqRtd6wRddDfU5w-5" target="i9t5IMqRtd6wRddDfU5w-4">
          <mxGeometry relative="1" as="geometry" />
        </mxCell>
        <mxCell id="i9t5IMqRtd6wRddDfU5w-5" value="" style="image;points=[];aspect=fixed;html=1;align=center;shadow=0;dashed=0;image=img/lib/allied_telesis/computer_and_terminals/Laptop.svg;" vertex="1" parent="1">
          <mxGeometry x="110" y="150" width="59.15" height="60" as="geometry" />
        </mxCell>
        <mxCell id="i9t5IMqRtd6wRddDfU5w-7" value="" style="image;points=[];aspect=fixed;html=1;align=center;shadow=0;dashed=0;image=img/lib/allied_telesis/computer_and_terminals/Laptop.svg;" vertex="1" parent="1">
          <mxGeometry x="110" y="320" width="59.15" height="60" as="geometry" />
        </mxCell>
        <mxCell id="i9t5IMqRtd6wRddDfU5w-8" style="edgeStyle=orthogonalEdgeStyle;rounded=0;orthogonalLoop=1;jettySize=auto;html=1;entryX=0.023;entryY=0.464;entryDx=0;entryDy=0;entryPerimeter=0;" edge="1" parent="1" source="i9t5IMqRtd6wRddDfU5w-7" target="i9t5IMqRtd6wRddDfU5w-4">
          <mxGeometry relative="1" as="geometry" />
        </mxCell>
        <mxCell id="i9t5IMqRtd6wRddDfU5w-10" style="edgeStyle=orthogonalEdgeStyle;rounded=0;orthogonalLoop=1;jettySize=auto;html=1;" edge="1" parent="1" source="i9t5IMqRtd6wRddDfU5w-9" target="i9t5IMqRtd6wRddDfU5w-4">
          <mxGeometry relative="1" as="geometry" />
        </mxCell>
        <mxCell id="i9t5IMqRtd6wRddDfU5w-9" value="" style="image;points=[];aspect=fixed;html=1;align=center;shadow=0;dashed=0;image=img/lib/allied_telesis/computer_and_terminals/Laptop.svg;" vertex="1" parent="1">
          <mxGeometry x="110" y="235" width="59.15" height="60" as="geometry" />
        </mxCell>
        <mxCell id="i9t5IMqRtd6wRddDfU5w-11" value="如果左侧有10000台用户呢" style="whiteSpace=wrap;html=1;" vertex="1" parent="1">
          <mxGeometry x="80" y="390" width="120" height="60" as="geometry" />
        </mxCell>
      </root>
    </mxGraphModel>
  </diagram>
</mxfile>
